<svg width="21" height="22" viewBox="0 0 21 22" fill="none" xmlns="http://www.w3.org/2000/svg">
<path d="M20 16C19.9996 15.7 19.1342 14.8967 18.5 14C17.8847 13.1299 17.5558 12.1694 17.5 11.5C17 5.5 14.9115 3 10.5054 3C6.09925 3 4 5.5 3.5 11.5C3.5 11.8951 3.10722 13.0757 2.5 14C1.85818 14.9769 1 15.6963 1 16" stroke="white" stroke-width="2"/>
<path d="M11 3C11 2.27433 10.8286 2 10.4973 2C10.1659 2 10 2.27433 10 3" stroke="white" stroke-width="3"/>
<path d="M12 19C12 19.5523 11.3284 20.5 10.5 20.5C9.67157 20.5 9 19.5523 9 19" stroke="white" stroke-width="3"/>
<path d="M0 17L21 17" stroke="white" stroke-width="2"/>
</svg>
