<svg width="27" height="27" viewBox="0 0 27 27" fill="none" xmlns="http://www.w3.org/2000/svg">
<path d="M12.2074 21V10.0909H15.233V21H12.2074ZM13.7273 8.68466C13.2775 8.68466 12.8916 8.53551 12.5696 8.23722C12.2524 7.93419 12.0938 7.57197 12.0938 7.15057C12.0938 6.7339 12.2524 6.37642 12.5696 6.07812C12.8916 5.77509 13.2775 5.62358 13.7273 5.62358C14.1771 5.62358 14.5606 5.77509 14.8778 6.07812C15.1998 6.37642 15.3608 6.7339 15.3608 7.15057C15.3608 7.57197 15.1998 7.93419 14.8778 8.23722C14.5606 8.53551 14.1771 8.68466 13.7273 8.68466Z" fill="white"/>
<circle cx="13.5" cy="13.5" r="12.5" stroke="white" stroke-width="2"/>
</svg>
