<svg width="2413" height="2367" viewBox="0 0 2413 2367" fill="none" xmlns="http://www.w3.org/2000/svg">
<path d="M1052.62 11.9407C1151.95 -14 1262.38 4.46017 1346.2 64.1841C1449.03 135.461 1509.75 264.35 1493.97 389.287C1476.93 559.862 1473.13 747.51 1567.93 898.087C1627.08 998.924 1685 1100.64 1743.73 1201.77C1819.23 1335.43 1947.57 1437.56 2094.08 1482.93C2212.95 1518.55 2315.09 1606.18 2368.05 1718.45C2442.01 1869.87 2422.02 2061.86 2316.93 2193.98C2202.55 2344.28 1990.1 2405 1812.47 2342.59C1719.2 2313.85 1652.57 2237.5 1564.25 2199.04C1309.28 2072.27 1015.73 2068.34 738.073 2091.72C588.884 2102.85 447.447 2154.97 305.588 2198.5C202.187 2227.52 84.0058 2176.66 32.3054 2082.97C-36.0151 1967.63 11.0401 1801.28 133.172 1742.94C245.019 1683.22 321.092 1579 384.616 1472.49C500.414 1273.32 614.795 1073.46 730.17 874.137C796.953 757.917 801.598 619.466 798.37 488.888C797.918 422.95 778.764 356.892 793.574 291.406C815.413 158.144 921.77 44.0348 1052.62 11.9407ZM1054.61 835.528C977.542 864.817 934.016 940.618 888.077 1004.14C774.42 1173.87 675.092 1353.32 591.418 1539.7C544.242 1648.01 592.836 1785.08 696.236 1841.12C764.828 1878.74 845.546 1875.36 921.197 1883.53C1118.13 1894.24 1316.76 1894.09 1512.55 1868.3C1616.95 1854.09 1697.94 1760.71 1710.91 1658.42C1721.47 1591.1 1690.34 1527.3 1660.48 1468.96C1606.66 1352.62 1541.3 1242.04 1477.2 1131.19C1425.77 1044.14 1372.69 956.242 1301.26 883.85C1238.43 819.33 1137.14 808.773 1054.61 835.528Z" fill="white"/>
</svg>
