<svg width="50" height="50" viewBox="0 0 50 50" fill="none" xmlns="http://www.w3.org/2000/svg">
<path d="M10.6562 19.1875C10.6562 18.3591 11.3278 17.6875 12.1562 17.6875H18.25V32.3125H12.1562C11.3278 32.3125 10.6562 31.6409 10.6562 30.8125V19.1875Z" stroke="white"/>
<path d="M17.6875 32.5552V17.4448L26.8344 10.9113C27.1653 10.6749 27.625 10.9115 27.625 11.3182V38.6818C27.625 39.0885 27.1653 39.3251 26.8344 39.0887L17.6875 32.5552Z" stroke="white"/>
<circle cx="25" cy="25" r="24.5" stroke="white"/>
<path d="M33.9101 34.7458C38.8446 29.5306 38.6171 21.3026 33.4019 16.368" stroke="white"/>
<path d="M31.1475 31.3247C34.1185 28.1847 33.9815 23.2309 30.8416 20.2599" stroke="white"/>
<path d="M37.1218 37.0666C43.7189 30.0943 43.4147 19.0942 36.4424 12.4972" stroke="white"/>
</svg>
