<svg width="48" height="48" viewBox="0 0 48 48" fill="none" xmlns="http://www.w3.org/2000/svg">
<path d="M22.1565 47.9014C18.5359 47.5473 14.8705 46.2203 11.7219 44.1233C9.08341 42.3669 8.48799 41.6437 8.48799 40.2024C8.48799 37.3069 11.6071 32.2347 16.9441 26.4537C19.9742 23.1696 24.1957 19.3224 24.6519 19.4261C25.5401 19.6285 32.636 26.6935 35.293 30.02C39.4938 35.2779 41.4243 39.5846 40.4432 41.5044C39.6976 42.9635 35.0696 45.8161 31.6702 46.9117C28.8679 47.815 25.1878 48.1975 22.1565 47.9014ZM4.92418 37.1921C2.73148 33.7585 1.62366 30.3785 1.08942 25.4897C0.91243 23.8755 0.974704 22.9527 1.48983 19.6385C2.13059 15.5125 4.43418 10.734 7.20373 7.79562C8.38256 6.54665 8.48744 6.5132 9.9252 7.00944C11.6678 7.61162 13.5305 8.92527 16.4203 11.5927L18.1082 13.1506L17.185 14.3047C12.9089 19.663 8.39567 27.2628 6.69679 31.9631C5.77361 34.5168 5.40215 37.0817 5.80093 38.1494C6.06859 38.8709 5.82278 38.6022 4.92144 37.1937L4.92418 37.1921ZM43.41 37.7759C43.6268 36.6964 43.3526 34.7148 42.7107 32.7153C41.3205 28.3857 36.6724 20.3316 32.4044 14.8551L31.0606 13.1311L32.5148 11.7689C34.4125 9.99023 35.7301 8.92527 37.1525 8.02032C38.274 7.30663 39.8773 6.67489 40.5667 6.67489C40.9911 6.67489 42.4873 8.26398 43.6945 9.99246C45.565 12.6688 46.9404 15.9195 47.6375 19.2984C48.0881 21.4841 48.1258 26.1566 47.7101 28.3367C47.366 30.1254 46.6449 32.4438 45.9457 34.0167C45.4158 35.1948 44.1103 37.4837 43.5367 38.2286C43.2417 38.6117 43.2417 38.6111 43.4056 37.7848L43.41 37.7759ZM22.5444 5.85749C20.5746 4.83713 17.5363 3.74149 15.8581 3.44598C15.2704 3.34283 14.2669 3.28428 13.6294 3.31774C12.2441 3.38911 12.3058 3.31551 14.5269 2.24441C16.3733 1.35396 17.9137 0.830398 20.0059 0.382108C22.3576 -0.122497 26.7796 -0.128073 29.0941 0.369841C31.5932 0.907901 34.537 2.02584 36.1955 3.0685L36.6893 3.3774L35.5585 3.31941C33.3101 3.20344 30.0336 4.13068 26.5157 5.87701C25.4549 6.40447 24.5328 6.82488 24.465 6.81373C24.3979 6.80035 23.5331 6.37046 22.5422 5.85749H22.5444Z" fill="#107C10"/>
</svg>
